REM DIRINDEX 1
REM DIRNAME folder01
TITLE ""
FILE "Disk3Track01.mp3" MP3
  TRACK 01 AUDIO
    TITLE "1:cjc069_1008"
    INDEX 01 00:00:00
  TRACK 02 AUDIO
    TITLE "1:cjc069_1009"
    INDEX 01 00:02:12
  TRACK 03 AUDIO
    TITLE "1:cjc069_1010"
    INDEX 01 00:14:25
  TRACK 04 AUDIO
    TITLE "1:cjc069_1011"
    INDEX 01 00:21:53
  TRACK 05 AUDIO
    TITLE "0:"
    INDEX 01 00:35:45
